<svg width="82" height="82" viewBox="0 0 82 82" fill="none" xmlns="http://www.w3.org/2000/svg">
<path fill-rule="evenodd" clip-rule="evenodd" d="M0 41C0 18.3563 18.3563 0 41 0C63.6437 0 82 18.3563 82 41C82 63.6437 63.6437 82 41 82C18.3563 82 0 63.6437 0 41ZM42.2424 15.921C40.7418 15.921 39.2654 16.2988 37.9492 17.0195C36.633 17.7401 35.5193 18.7806 34.711 20.0448C34.4844 20.3992 34.0602 20.5739 33.6497 20.4819C32.181 20.1526 30.653 20.1995 29.2073 20.6182C27.7616 21.0369 26.445 21.8139 25.3796 22.877C24.3142 23.9402 23.5345 25.2552 23.1128 26.7C22.691 28.1448 22.6409 29.6728 22.9671 31.1421C23.0585 31.5537 22.8819 31.9784 22.5257 32.2038C21.2517 33.0101 20.2024 34.1254 19.4752 35.4461C18.7481 36.7668 18.3668 38.25 18.3668 39.7576C18.3668 41.2653 18.7481 42.7484 19.4752 44.0691C20.2024 45.3898 21.2517 46.5052 22.5257 47.3114C22.8819 47.5369 23.0585 47.9616 22.9671 48.3731C22.6409 49.8425 22.691 51.3704 23.1128 52.8153C23.5345 54.2601 24.3142 55.5751 25.3796 56.6382C26.445 57.7014 27.7616 58.4784 29.2073 58.8971C30.653 59.3158 32.181 59.3626 33.6497 59.0334C34.061 58.9412 34.486 59.1168 34.7122 59.4724C35.5195 60.7415 36.634 61.7864 37.9525 62.5103C39.2709 63.2342 40.7507 63.6137 42.2548 63.6137C43.759 63.6137 45.2388 63.2342 46.5572 62.5103C47.8757 61.7864 48.9902 60.7415 49.7975 59.4724C50.0233 59.1174 50.4472 58.9417 50.8579 59.0329C52.3273 59.3591 53.8552 59.309 55.3001 58.8873C56.7449 58.4656 58.0599 57.6859 59.123 56.6205C60.1862 55.5551 60.9632 54.2385 61.3819 52.7928C61.8005 51.347 61.8474 49.819 61.5182 48.3503C61.4261 47.9399 61.6008 47.5157 61.9552 47.2891C63.2195 46.4807 64.2599 45.3671 64.9806 44.0509C65.7013 42.7347 66.079 41.2582 66.079 39.7576C66.079 38.257 65.7013 36.7806 64.9806 35.4644C64.2599 34.1482 63.2195 33.0346 61.9552 32.2262C61.6006 31.9995 61.426 31.575 61.5183 31.1643C61.849 29.6934 61.8023 28.1628 61.3826 26.7148C60.9629 25.2667 60.1838 23.9484 59.1177 22.8823C58.0517 21.8163 56.7333 21.0372 55.2853 20.6175C53.8373 20.1977 52.3066 20.1511 50.8357 20.4818C50.4251 20.5741 50.0006 20.3994 49.7739 20.0448C48.9655 18.7806 47.8519 17.7401 46.5357 17.0195C45.2195 16.2988 43.743 15.921 42.2424 15.921ZM36.9886 15.2652C38.5993 14.3833 40.4061 13.921 42.2424 13.921C44.0787 13.921 45.8855 14.3833 47.4962 15.2652C48.9058 16.037 50.1255 17.1085 51.0711 18.401C52.661 18.147 54.2903 18.2467 55.8421 18.6965C57.6141 19.2101 59.2274 20.1636 60.5319 21.4681C61.8365 22.7727 62.7899 24.386 63.3035 26.158C63.7533 27.7098 63.853 29.3391 63.5991 30.9289C64.8916 31.8746 65.963 33.0943 66.7348 34.5039C67.6168 36.1145 68.079 37.9213 68.079 39.7576C68.079 41.594 67.6168 43.4007 66.7348 45.0114C65.963 46.4211 64.8914 47.6409 63.5987 48.5866C63.8513 50.1737 63.7515 51.8 63.3029 53.3491C62.7905 55.1183 61.8398 56.7294 60.5387 58.0332C59.2377 59.337 57.6285 60.2911 55.8604 60.8072C54.3124 61.259 52.6863 61.3623 51.0987 61.113C50.1535 62.4112 48.9323 63.4879 47.5198 64.2634C45.9063 65.1493 44.0955 65.6137 42.2548 65.6137C40.4142 65.6137 38.6034 65.1493 36.9899 64.2634C35.5778 63.4881 34.3569 62.4119 33.4119 61.1142C31.8252 61.3665 30.1995 61.2666 28.6509 60.8181C26.8818 60.3057 25.2706 59.355 23.9669 58.0539C22.6631 56.7529 21.7089 55.1437 21.1929 53.3756C20.7412 51.8281 20.6379 50.2026 20.8868 48.6155C19.5835 47.671 18.5022 46.4487 17.7232 45.0337C16.8334 43.4176 16.3668 41.6026 16.3668 39.7576C16.3668 37.9127 16.8334 36.0977 17.7232 34.4815C18.5022 33.0666 19.5835 31.8443 20.8868 30.8998C20.6379 29.3126 20.7412 27.6872 21.1929 26.1396C21.7089 24.3715 22.6631 22.7624 23.9669 21.4613C25.2706 20.1603 26.8818 19.2095 28.6509 18.6972C30.2 18.2485 31.8263 18.1487 33.4135 18.4013C34.3591 17.1087 35.5789 16.0371 36.9886 15.2652ZM50.4041 35.495C50.7946 35.1045 50.7946 34.4714 50.4041 34.0808C50.0135 33.6903 49.3804 33.6903 48.9899 34.0808L39.7576 43.3131L35.495 39.0505C35.1045 38.66 34.4713 38.66 34.0808 39.0505C33.6902 39.4411 33.6902 40.0742 34.0808 40.4647L39.0505 45.4344C39.441 45.825 40.0742 45.825 40.4647 45.4344L50.4041 35.495Z" fill="black"/>
</svg>
