<svg width="242" height="36" viewBox="0 0 242 36" fill="none" xmlns="http://www.w3.org/2000/svg">
<path d="M48.016 30V7.312H53.744V30H48.016ZM52.56 30V25.072H63.504V30H52.56ZM73.5673 30.352C71.8179 30.352 70.2713 30.0107 68.9273 29.328C67.5833 28.624 66.5273 27.6533 65.7593 26.416C64.9913 25.1787 64.6073 23.76 64.6073 22.16C64.6073 20.5813 64.9806 19.184 65.7273 17.968C66.4739 16.7307 67.4873 15.76 68.7673 15.056C70.0686 14.3307 71.5299 13.968 73.1513 13.968C74.7299 13.968 76.1273 14.3093 77.3433 14.992C78.5806 15.6533 79.5406 16.5813 80.2233 17.776C80.9273 18.9493 81.2793 20.2933 81.2793 21.808C81.2793 22.128 81.2579 22.4587 81.2153 22.8C81.1939 23.12 81.1299 23.4933 81.0233 23.92L67.2313 23.984V20.4L78.8153 20.304L76.3193 21.872C76.2979 20.9973 76.1699 20.2827 75.9353 19.728C75.7006 19.152 75.3593 18.7147 74.9113 18.416C74.4633 18.1173 73.8979 17.968 73.2153 17.968C72.5113 17.968 71.9033 18.1387 71.3913 18.48C70.8793 18.8213 70.4846 19.3013 70.2073 19.92C69.9299 20.5387 69.7913 21.2853 69.7913 22.16C69.7913 23.056 69.9406 23.824 70.2393 24.464C70.5379 25.0827 70.9646 25.552 71.5193 25.872C72.0739 26.192 72.7566 26.352 73.5673 26.352C74.3353 26.352 75.0073 26.224 75.5833 25.968C76.1806 25.712 76.7139 25.3173 77.1833 24.784L80.0953 27.696C79.3273 28.5707 78.3886 29.232 77.2793 29.68C76.1913 30.128 74.9539 30.352 73.5673 30.352ZM89.91 30.32C88.4593 30.32 87.1687 29.968 86.038 29.264C84.9073 28.56 84.022 27.6 83.382 26.384C82.742 25.1467 82.422 23.7493 82.422 22.192C82.422 20.6133 82.742 19.2053 83.382 17.968C84.022 16.7307 84.9073 15.7707 86.038 15.088C87.1687 14.384 88.4593 14.032 89.91 14.032C90.8913 14.032 91.7873 14.2133 92.598 14.576C93.4087 14.9173 94.07 15.408 94.582 16.048C95.1153 16.688 95.4353 17.4133 95.542 18.224V26.096C95.4353 26.928 95.1153 27.664 94.582 28.304C94.07 28.9227 93.4087 29.4133 92.598 29.776C91.7873 30.1387 90.8913 30.32 89.91 30.32ZM91.094 25.36C92.0113 25.36 92.7473 25.0613 93.302 24.464C93.878 23.8667 94.166 23.0987 94.166 22.16C94.166 21.5413 94.038 20.9973 93.782 20.528C93.526 20.0587 93.1633 19.6853 92.694 19.408C92.246 19.1307 91.7233 18.992 91.126 18.992C90.5287 18.992 89.9953 19.1307 89.526 19.408C89.078 19.6853 88.7153 20.0693 88.438 20.56C88.182 21.0293 88.054 21.5627 88.054 22.16C88.054 22.7787 88.182 23.3333 88.438 23.824C88.694 24.2933 89.0567 24.6667 89.526 24.944C89.9953 25.2213 90.518 25.36 91.094 25.36ZM93.942 30V25.808L94.742 21.968L93.942 18.192V14.352H99.414V30H93.942ZM109.383 30.32C107.869 30.32 106.535 29.968 105.383 29.264C104.231 28.56 103.325 27.6 102.663 26.384C102.023 25.1467 101.703 23.7493 101.703 22.192C101.703 20.6133 102.023 19.2053 102.663 17.968C103.325 16.7307 104.221 15.7707 105.351 15.088C106.503 14.384 107.847 14.032 109.383 14.032C110.365 14.032 111.282 14.2133 112.135 14.576C112.989 14.9173 113.703 15.408 114.279 16.048C114.855 16.688 115.197 17.4133 115.303 18.224V25.872C115.197 26.6827 114.855 27.4293 114.279 28.112C113.703 28.7947 112.989 29.3387 112.135 29.744C111.282 30.128 110.365 30.32 109.383 30.32ZM110.375 25.36C110.994 25.36 111.527 25.232 111.975 24.976C112.423 24.6987 112.775 24.3253 113.031 23.856C113.309 23.3653 113.447 22.8 113.447 22.16C113.447 21.5413 113.319 20.9973 113.063 20.528C112.807 20.0587 112.445 19.6853 111.975 19.408C111.527 19.1307 111.005 18.992 110.407 18.992C109.81 18.992 109.277 19.1307 108.807 19.408C108.359 19.6853 107.997 20.0693 107.719 20.56C107.463 21.0293 107.335 21.5627 107.335 22.16C107.335 22.7787 107.463 23.3333 107.719 23.824C107.975 24.2933 108.338 24.6667 108.807 24.944C109.277 25.2213 109.799 25.36 110.375 25.36ZM118.695 30H113.223V25.808L114.023 21.968L113.127 18.192V6.672H118.695V30ZM129.849 30.352C128.099 30.352 126.553 30.0107 125.209 29.328C123.865 28.624 122.809 27.6533 122.041 26.416C121.273 25.1787 120.889 23.76 120.889 22.16C120.889 20.5813 121.262 19.184 122.009 17.968C122.755 16.7307 123.769 15.76 125.049 15.056C126.35 14.3307 127.811 13.968 129.433 13.968C131.011 13.968 132.409 14.3093 133.625 14.992C134.862 15.6533 135.822 16.5813 136.505 17.776C137.209 18.9493 137.561 20.2933 137.561 21.808C137.561 22.128 137.539 22.4587 137.497 22.8C137.475 23.12 137.411 23.4933 137.305 23.92L123.513 23.984V20.4L135.097 20.304L132.601 21.872C132.579 20.9973 132.451 20.2827 132.217 19.728C131.982 19.152 131.641 18.7147 131.193 18.416C130.745 18.1173 130.179 17.968 129.497 17.968C128.793 17.968 128.185 18.1387 127.673 18.48C127.161 18.8213 126.766 19.3013 126.489 19.92C126.211 20.5387 126.073 21.2853 126.073 22.16C126.073 23.056 126.222 23.824 126.521 24.464C126.819 25.0827 127.246 25.552 127.801 25.872C128.355 26.192 129.038 26.352 129.849 26.352C130.617 26.352 131.289 26.224 131.865 25.968C132.462 25.712 132.995 25.3173 133.465 24.784L136.377 27.696C135.609 28.5707 134.67 29.232 133.561 29.68C132.473 30.128 131.235 30.352 129.849 30.352ZM139.663 30V14.352H145.231V30H139.663ZM145.231 21.488L142.735 19.376C143.354 17.6053 144.175 16.272 145.199 15.376C146.223 14.48 147.557 14.032 149.199 14.032C149.946 14.032 150.586 14.128 151.119 14.32C151.674 14.512 152.143 14.8107 152.527 15.216L149.295 19.536C149.125 19.344 148.879 19.1947 148.559 19.088C148.261 18.96 147.919 18.896 147.535 18.896C146.81 18.896 146.245 19.12 145.839 19.568C145.434 19.9947 145.231 20.6347 145.231 21.488ZM162.569 30.32C161.566 30.32 160.638 30.128 159.785 29.744C158.932 29.3387 158.228 28.7947 157.673 28.112C157.118 27.4293 156.777 26.6827 156.649 25.872V18.224C156.777 17.4133 157.118 16.688 157.673 16.048C158.249 15.408 158.964 14.9173 159.817 14.576C160.67 14.2133 161.588 14.032 162.569 14.032C164.084 14.032 165.417 14.384 166.569 15.088C167.721 15.7707 168.617 16.7307 169.257 17.968C169.918 19.2053 170.249 20.6133 170.249 22.192C170.249 23.7493 169.918 25.1467 169.257 26.384C168.617 27.6 167.721 28.56 166.569 29.264C165.417 29.968 164.084 30.32 162.569 30.32ZM153.257 30V6.672H158.825V18.192L157.897 21.968L158.697 25.808V30H153.257ZM161.577 25.36C162.174 25.36 162.697 25.2213 163.145 24.944C163.614 24.6667 163.977 24.2933 164.233 23.824C164.489 23.3333 164.617 22.7787 164.617 22.16C164.617 21.5627 164.489 21.0293 164.233 20.56C163.977 20.0693 163.614 19.6853 163.145 19.408C162.676 19.1307 162.142 18.992 161.545 18.992C160.948 18.992 160.414 19.1307 159.945 19.408C159.497 19.6853 159.145 20.0587 158.889 20.528C158.633 20.9973 158.505 21.5413 158.505 22.16C158.505 22.8 158.633 23.3653 158.889 23.856C159.145 24.3253 159.508 24.6987 159.977 24.976C160.446 25.232 160.98 25.36 161.577 25.36ZM180.25 30.352C178.565 30.352 177.061 30 175.738 29.296C174.437 28.5707 173.402 27.5893 172.634 26.352C171.866 25.0933 171.482 23.6853 171.482 22.128C171.482 20.5707 171.856 19.184 172.602 17.968C173.37 16.7307 174.416 15.76 175.738 15.056C177.061 14.3307 178.554 13.968 180.218 13.968C181.882 13.968 183.365 14.3307 184.666 15.056C185.989 15.76 187.034 16.7307 187.802 17.968C188.57 19.184 188.954 20.5707 188.954 22.128C188.954 23.6853 188.57 25.0933 187.802 26.352C187.056 27.5893 186.021 28.5707 184.698 29.296C183.397 30 181.914 30.352 180.25 30.352ZM180.218 25.392C180.837 25.392 181.37 25.264 181.818 25.008C182.288 24.7307 182.65 24.3467 182.906 23.856C183.162 23.3653 183.29 22.8 183.29 22.16C183.29 21.52 183.152 20.9653 182.874 20.496C182.618 20.0053 182.266 19.632 181.818 19.376C181.37 19.0987 180.837 18.96 180.218 18.96C179.621 18.96 179.088 19.0987 178.618 19.376C178.149 19.6533 177.786 20.0373 177.53 20.528C177.274 20.9973 177.146 21.552 177.146 22.192C177.146 22.8107 177.274 23.3653 177.53 23.856C177.786 24.3467 178.149 24.7307 178.618 25.008C179.088 25.264 179.621 25.392 180.218 25.392ZM197.691 30.32C196.241 30.32 194.95 29.968 193.819 29.264C192.689 28.56 191.803 27.6 191.163 26.384C190.523 25.1467 190.203 23.7493 190.203 22.192C190.203 20.6133 190.523 19.2053 191.163 17.968C191.803 16.7307 192.689 15.7707 193.819 15.088C194.95 14.384 196.241 14.032 197.691 14.032C198.673 14.032 199.569 14.2133 200.379 14.576C201.19 14.9173 201.851 15.408 202.363 16.048C202.897 16.688 203.217 17.4133 203.323 18.224V26.096C203.217 26.928 202.897 27.664 202.363 28.304C201.851 28.9227 201.19 29.4133 200.379 29.776C199.569 30.1387 198.673 30.32 197.691 30.32ZM198.875 25.36C199.793 25.36 200.529 25.0613 201.083 24.464C201.659 23.8667 201.947 23.0987 201.947 22.16C201.947 21.5413 201.819 20.9973 201.563 20.528C201.307 20.0587 200.945 19.6853 200.475 19.408C200.027 19.1307 199.505 18.992 198.907 18.992C198.31 18.992 197.777 19.1307 197.307 19.408C196.859 19.6853 196.497 20.0693 196.219 20.56C195.963 21.0293 195.835 21.5627 195.835 22.16C195.835 22.7787 195.963 23.3333 196.219 23.824C196.475 24.2933 196.838 24.6667 197.307 24.944C197.777 25.2213 198.299 25.36 198.875 25.36ZM201.723 30V25.808L202.523 21.968L201.723 18.192V14.352H207.195V30H201.723ZM210.445 30V14.352H216.013V30H210.445ZM216.013 21.488L213.516 19.376C214.135 17.6053 214.957 16.272 215.981 15.376C217.005 14.48 218.338 14.032 219.981 14.032C220.727 14.032 221.367 14.128 221.901 14.32C222.455 14.512 222.925 14.8107 223.309 15.216L220.077 19.536C219.906 19.344 219.661 19.1947 219.341 19.088C219.042 18.96 218.701 18.896 218.317 18.896C217.591 18.896 217.026 19.12 216.621 19.568C216.215 19.9947 216.013 20.6347 216.013 21.488ZM230.696 30.32C229.181 30.32 227.848 29.968 226.696 29.264C225.544 28.56 224.637 27.6 223.976 26.384C223.336 25.1467 223.016 23.7493 223.016 22.192C223.016 20.6133 223.336 19.2053 223.976 17.968C224.637 16.7307 225.533 15.7707 226.664 15.088C227.816 14.384 229.16 14.032 230.696 14.032C231.677 14.032 232.594 14.2133 233.448 14.576C234.301 14.9173 235.016 15.408 235.592 16.048C236.168 16.688 236.509 17.4133 236.616 18.224V25.872C236.509 26.6827 236.168 27.4293 235.592 28.112C235.016 28.7947 234.301 29.3387 233.448 29.744C232.594 30.128 231.677 30.32 230.696 30.32ZM231.688 25.36C232.306 25.36 232.84 25.232 233.288 24.976C233.736 24.6987 234.088 24.3253 234.344 23.856C234.621 23.3653 234.76 22.8 234.76 22.16C234.76 21.5413 234.632 20.9973 234.376 20.528C234.12 20.0587 233.757 19.6853 233.288 19.408C232.84 19.1307 232.317 18.992 231.72 18.992C231.122 18.992 230.589 19.1307 230.12 19.408C229.672 19.6853 229.309 20.0693 229.032 20.56C228.776 21.0293 228.648 21.5627 228.648 22.16C228.648 22.7787 228.776 23.3333 229.032 23.824C229.288 24.2933 229.65 24.6667 230.12 24.944C230.589 25.2213 231.112 25.36 231.688 25.36ZM240.008 30H234.536V25.808L235.336 21.968L234.44 18.192V6.672H240.008V30Z" fill="black"/>
<path fill-rule="evenodd" clip-rule="evenodd" d="M0 18C0 8.05888 8.05888 0 18 0C27.9411 0 36 8.05888 36 18C36 27.9411 27.9411 36 18 36C8.05888 36 0 27.9411 0 18ZM15.9993 26.75L12.6667 26.75C11.332 26.75 10.25 25.668 10.25 24.3333V20.9999V16.0001L10.25 12.6667C10.25 11.332 11.332 10.25 12.6667 10.25H15.9983L15.9993 10.25L16.0003 10.25L24.3333 10.25C25.668 10.25 26.75 11.332 26.75 12.6667V15.9988C26.75 15.9992 26.75 15.9996 26.75 16.0001C26.75 16.0005 26.75 16.001 26.75 16.0014L26.75 20.999V20.9999V21.0008V24.3333C26.75 25.668 25.668 26.75 24.3333 26.75H15.9993ZM25.25 15.2501V12.6667C25.25 12.1604 24.8396 11.75 24.3333 11.75L16.7493 11.75V15.2501L25.25 15.2501ZM16.7493 16.7501H25.25V20.2499L16.7493 20.2499V16.7501ZM15.2493 16.7501V20.2499H11.75V16.7501H15.2493ZM15.2493 15.2501H11.75V12.6667C11.75 12.1604 12.1604 11.75 12.6667 11.75H15.2493V15.2501ZM15.2493 21.7499H11.75V24.3333C11.75 24.8396 12.1604 25.25 12.6667 25.25H15.2493V21.7499ZM16.7493 25.25V21.7499L25.25 21.7499V24.3333C25.25 24.8396 24.8396 25.25 24.3333 25.25L16.7493 25.25Z" fill="black"/>
</svg>
