<svg width="186" height="33" viewBox="0 0 186 33" fill="none" xmlns="http://www.w3.org/2000/svg">
<path fill-rule="evenodd" clip-rule="evenodd" d="M0 16.5C0 7.3873 7.3873 0 16.5 0C25.6127 0 33 7.3873 33 16.5C33 25.6127 25.6127 33 16.5 33C7.3873 33 0 25.6127 0 16.5ZM17 7.00479C16.4964 7.00479 16.0009 7.13156 15.5592 7.37341C15.1175 7.61527 14.7438 7.96442 14.4725 8.3887C14.2459 8.74311 13.8217 8.9178 13.4112 8.82578C12.9184 8.71528 12.4056 8.73101 11.9204 8.87152C11.4352 9.01204 10.9934 9.27278 10.6358 9.62957C10.2783 9.98636 10.0166 10.4277 9.8751 10.9125C9.73357 11.3974 9.71676 11.9102 9.82623 12.4033C9.9176 12.8149 9.74102 13.2395 9.38477 13.465C8.95723 13.7356 8.60508 14.1099 8.36105 14.5531C8.11703 14.9963 7.98907 15.494 7.98907 16C7.98907 16.506 8.11703 17.0037 8.36105 17.4469C8.60508 17.8901 8.95723 18.2644 9.38477 18.535C9.74102 18.7605 9.9176 19.1851 9.82623 19.5967C9.71676 20.0898 9.73357 20.6026 9.8751 21.0875C10.0166 21.5723 10.2783 22.0136 10.6358 22.3704C10.9934 22.7272 11.4352 22.988 11.9204 23.1285C12.4056 23.269 12.9184 23.2847 13.4112 23.1742C13.8225 23.082 14.2475 23.2576 14.4738 23.6133C14.7447 24.0392 15.1187 24.3898 15.5612 24.6328C16.0036 24.8757 16.5002 25.0031 17.005 25.0031C17.5098 25.0031 18.0064 24.8757 18.4488 24.6328C18.8913 24.3898 19.2653 24.0392 19.5363 23.6133C19.7621 23.2583 20.186 23.0826 20.5967 23.1738C21.0898 23.2832 21.6026 23.2664 22.0875 23.1249C22.5723 22.9834 23.0136 22.7217 23.3704 22.3642C23.7272 22.0066 23.988 21.5648 24.1285 21.0796C24.269 20.5944 24.2847 20.0816 24.1742 19.5888C24.0822 19.1783 24.2569 18.7541 24.6113 18.5275C25.0356 18.2562 25.3847 17.8825 25.6266 17.4408C25.8684 16.9991 25.9952 16.5036 25.9952 16C25.9952 15.4964 25.8684 15.0009 25.6266 14.5592C25.3847 14.1175 25.0356 13.7438 24.6113 13.4725C24.2567 13.2458 24.082 12.8213 24.1744 12.4106C24.2853 11.917 24.2697 11.4033 24.1288 10.9174C23.988 10.4315 23.7265 9.98902 23.3687 9.63126C23.011 9.2735 22.5686 9.01203 22.0826 8.87118C21.5967 8.73033 21.083 8.71466 20.5894 8.82565C20.1787 8.91797 19.7542 8.74329 19.5275 8.3887C19.2562 7.96442 18.8825 7.61527 18.4408 7.37341C17.9991 7.13156 17.5036 7.00479 17 7.00479ZM14.5987 5.61916C15.3349 5.21607 16.1607 5.00479 17 5.00479C17.8393 5.00479 18.6651 5.21607 19.4013 5.61916C19.9404 5.91436 20.4188 6.30546 20.8138 6.77142C21.4263 6.71811 22.0453 6.77804 22.6394 6.95025C23.4493 7.185 24.1867 7.62078 24.783 8.21705C25.3792 8.81331 25.815 9.5507 26.0498 10.3606C26.222 10.9547 26.2819 11.5737 26.2286 12.1862C26.6945 12.5812 27.0856 13.0596 27.3808 13.5987C27.7839 14.3349 27.9952 15.1607 27.9952 16C27.9952 16.8393 27.7839 17.6651 27.3808 18.4013C27.0856 18.9406 26.6944 19.419 26.2283 19.8141C26.2812 20.4253 26.2213 21.043 26.0495 21.636C25.8153 22.4446 25.3808 23.181 24.7861 23.7769C24.1915 24.3728 23.456 24.8089 22.6479 25.0448C22.0553 25.2177 21.4378 25.2789 20.8265 25.2274C20.4313 25.6958 19.952 26.0891 19.4114 26.3859C18.674 26.7908 17.8463 27.0031 17.005 27.0031C16.1637 27.0031 15.336 26.7908 14.5986 26.3859C14.0584 26.0893 13.5795 25.6964 13.1844 25.2284C12.5737 25.2811 11.9565 25.2211 11.364 25.0495C10.5554 24.8153 9.819 24.3808 9.2231 23.7861C8.6272 23.1915 8.19109 22.456 7.95521 21.6479C7.7824 21.0558 7.72116 20.4388 7.77251 19.828C7.30218 19.4328 6.90719 18.953 6.60904 18.4115C6.20234 17.6728 5.98907 16.8433 5.98907 16C5.98907 15.1567 6.20234 14.3272 6.60904 13.5885C6.90719 13.047 7.30218 12.5672 7.77251 12.172C7.72116 11.5612 7.7824 10.9442 7.95521 10.3521C8.19109 9.54402 8.6272 8.80853 9.2231 8.21387C9.819 7.61922 10.5554 7.18465 11.364 6.95047C11.957 6.77874 12.5747 6.71884 13.1859 6.77172C13.581 6.30563 14.0594 5.91442 14.5987 5.61916ZM20.7071 14.7071C21.0976 14.3166 21.0976 13.6834 20.7071 13.2929C20.3166 12.9024 19.6834 12.9024 19.2929 13.2929L16 16.5858L14.7071 15.2929C14.3166 14.9024 13.6834 14.9024 13.2929 15.2929C12.9024 15.6834 12.9024 16.3166 13.2929 16.7071L15.2929 18.7071C15.6834 19.0976 16.3166 19.0976 16.7071 18.7071L20.7071 14.7071Z" fill="black"/>
<path d="M41.016 28V5.312H46.744V28H41.016ZM45.56 19.52V14.688H56.792V19.52H45.56ZM45.56 10.144V5.312H57.304V10.144H45.56ZM67.3485 28.352C65.5992 28.352 64.0525 28.0107 62.7085 27.328C61.3645 26.624 60.3085 25.6533 59.5405 24.416C58.7725 23.1787 58.3885 21.76 58.3885 20.16C58.3885 18.5813 58.7618 17.184 59.5085 15.968C60.2552 14.7307 61.2685 13.76 62.5485 13.056C63.8498 12.3307 65.3112 11.968 66.9325 11.968C68.5112 11.968 69.9085 12.3093 71.1245 12.992C72.3618 13.6533 73.3218 14.5813 74.0045 15.776C74.7085 16.9493 75.0605 18.2933 75.0605 19.808C75.0605 20.128 75.0392 20.4587 74.9965 20.8C74.9752 21.12 74.9112 21.4933 74.8045 21.92L61.0125 21.984V18.4L72.5965 18.304L70.1005 19.872C70.0792 18.9973 69.9512 18.2827 69.7165 17.728C69.4818 17.152 69.1405 16.7147 68.6925 16.416C68.2445 16.1173 67.6792 15.968 66.9965 15.968C66.2925 15.968 65.6845 16.1387 65.1725 16.48C64.6605 16.8213 64.2658 17.3013 63.9885 17.92C63.7112 18.5387 63.5725 19.2853 63.5725 20.16C63.5725 21.056 63.7218 21.824 64.0205 22.464C64.3192 23.0827 64.7458 23.552 65.3005 23.872C65.8552 24.192 66.5378 24.352 67.3485 24.352C68.1165 24.352 68.7885 24.224 69.3645 23.968C69.9618 23.712 70.4952 23.3173 70.9645 22.784L73.8765 25.696C73.1085 26.5707 72.1698 27.232 71.0605 27.68C69.9725 28.128 68.7352 28.352 67.3485 28.352ZM85.0673 28.352C83.3179 28.352 81.7713 28.0107 80.4273 27.328C79.0833 26.624 78.0273 25.6533 77.2593 24.416C76.4913 23.1787 76.1073 21.76 76.1073 20.16C76.1073 18.5813 76.4806 17.184 77.2273 15.968C77.9739 14.7307 78.9873 13.76 80.2673 13.056C81.5686 12.3307 83.0299 11.968 84.6513 11.968C86.2299 11.968 87.6273 12.3093 88.8433 12.992C90.0806 13.6533 91.0406 14.5813 91.7233 15.776C92.4273 16.9493 92.7793 18.2933 92.7793 19.808C92.7793 20.128 92.7579 20.4587 92.7153 20.8C92.6939 21.12 92.6299 21.4933 92.5233 21.92L78.7313 21.984V18.4L90.3153 18.304L87.8193 19.872C87.7979 18.9973 87.6699 18.2827 87.4353 17.728C87.2006 17.152 86.8593 16.7147 86.4113 16.416C85.9633 16.1173 85.3979 15.968 84.7153 15.968C84.0113 15.968 83.4033 16.1387 82.8913 16.48C82.3793 16.8213 81.9846 17.3013 81.7073 17.92C81.4299 18.5387 81.2913 19.2853 81.2913 20.16C81.2913 21.056 81.4406 21.824 81.7393 22.464C82.0379 23.0827 82.4646 23.552 83.0193 23.872C83.5739 24.192 84.2566 24.352 85.0673 24.352C85.8353 24.352 86.5073 24.224 87.0833 23.968C87.6806 23.712 88.2139 23.3173 88.6833 22.784L91.5953 25.696C90.8273 26.5707 89.8886 27.232 88.7793 27.68C87.6913 28.128 86.4539 28.352 85.0673 28.352ZM101.602 28.32C100.087 28.32 98.754 27.968 97.602 27.264C96.45 26.56 95.5433 25.6 94.882 24.384C94.242 23.1467 93.922 21.7493 93.922 20.192C93.922 18.6133 94.242 17.2053 94.882 15.968C95.5433 14.7307 96.4393 13.7707 97.57 13.088C98.722 12.384 100.066 12.032 101.602 12.032C102.583 12.032 103.501 12.2133 104.354 12.576C105.207 12.9173 105.922 13.408 106.498 14.048C107.074 14.688 107.415 15.4133 107.522 16.224V23.872C107.415 24.6827 107.074 25.4293 106.498 26.112C105.922 26.7947 105.207 27.3387 104.354 27.744C103.501 28.128 102.583 28.32 101.602 28.32ZM102.594 23.36C103.213 23.36 103.746 23.232 104.194 22.976C104.642 22.6987 104.994 22.3253 105.25 21.856C105.527 21.3653 105.666 20.8 105.666 20.16C105.666 19.5413 105.538 18.9973 105.282 18.528C105.026 18.0587 104.663 17.6853 104.194 17.408C103.746 17.1307 103.223 16.992 102.626 16.992C102.029 16.992 101.495 17.1307 101.026 17.408C100.578 17.6853 100.215 18.0693 99.938 18.56C99.682 19.0293 99.554 19.5627 99.554 20.16C99.554 20.7787 99.682 21.3333 99.938 21.824C100.194 22.2933 100.557 22.6667 101.026 22.944C101.495 23.2213 102.018 23.36 102.594 23.36ZM110.914 28H105.442V23.808L106.242 19.968L105.346 16.192V4.672H110.914V28ZM123.475 28.32C122.473 28.32 121.545 28.128 120.691 27.744C119.838 27.3387 119.134 26.7947 118.579 26.112C118.025 25.4293 117.683 24.6827 117.555 23.872V16.224C117.683 15.4133 118.025 14.688 118.579 14.048C119.155 13.408 119.87 12.9173 120.723 12.576C121.577 12.2133 122.494 12.032 123.475 12.032C124.99 12.032 126.323 12.384 127.475 13.088C128.627 13.7707 129.523 14.7307 130.163 15.968C130.825 17.2053 131.155 18.6133 131.155 20.192C131.155 21.7493 130.825 23.1467 130.163 24.384C129.523 25.6 128.627 26.56 127.475 27.264C126.323 27.968 124.99 28.32 123.475 28.32ZM122.483 23.36C123.081 23.36 123.603 23.2213 124.051 22.944C124.521 22.6667 124.883 22.2933 125.139 21.824C125.395 21.3333 125.523 20.7787 125.523 20.16C125.523 19.5627 125.395 19.0293 125.139 18.56C124.883 18.0693 124.521 17.6853 124.051 17.408C123.582 17.1307 123.049 16.992 122.451 16.992C121.854 16.992 121.321 17.1307 120.851 17.408C120.403 17.6853 120.051 18.0587 119.795 18.528C119.539 18.9973 119.411 19.5413 119.411 20.16C119.411 20.8 119.539 21.3653 119.795 21.856C120.051 22.3253 120.414 22.6987 120.883 22.976C121.353 23.232 121.886 23.36 122.483 23.36ZM114.163 28V4.672H119.731V16.192L118.803 19.968L119.603 23.808V28H114.163ZM139.973 28.32C138.522 28.32 137.231 27.968 136.101 27.264C134.97 26.56 134.085 25.6 133.445 24.384C132.805 23.1467 132.485 21.7493 132.485 20.192C132.485 18.6133 132.805 17.2053 133.445 15.968C134.085 14.7307 134.97 13.7707 136.101 13.088C137.231 12.384 138.522 12.032 139.973 12.032C140.954 12.032 141.85 12.2133 142.661 12.576C143.471 12.9173 144.133 13.408 144.645 14.048C145.178 14.688 145.498 15.4133 145.605 16.224V24.096C145.498 24.928 145.178 25.664 144.645 26.304C144.133 26.9227 143.471 27.4133 142.661 27.776C141.85 28.1387 140.954 28.32 139.973 28.32ZM141.157 23.36C142.074 23.36 142.81 23.0613 143.365 22.464C143.941 21.8667 144.229 21.0987 144.229 20.16C144.229 19.5413 144.101 18.9973 143.845 18.528C143.589 18.0587 143.226 17.6853 142.757 17.408C142.309 17.1307 141.786 16.992 141.189 16.992C140.591 16.992 140.058 17.1307 139.589 17.408C139.141 17.6853 138.778 18.0693 138.501 18.56C138.245 19.0293 138.117 19.5627 138.117 20.16C138.117 20.7787 138.245 21.3333 138.501 21.824C138.757 22.2933 139.119 22.6667 139.589 22.944C140.058 23.2213 140.581 23.36 141.157 23.36ZM144.005 28V23.808L144.805 19.968L144.005 16.192V12.352H149.477V28H144.005ZM160.47 28.352C158.806 28.352 157.302 28 155.958 27.296C154.635 26.592 153.59 25.6213 152.822 24.384C152.054 23.1467 151.67 21.7493 151.67 20.192C151.67 18.6133 152.054 17.2053 152.822 15.968C153.611 14.7307 154.667 13.76 155.99 13.056C157.334 12.3307 158.848 11.968 160.534 11.968C161.75 11.968 162.859 12.1707 163.862 12.576C164.864 12.9813 165.782 13.5893 166.614 14.4L163.094 17.92C162.774 17.6 162.4 17.3653 161.974 17.216C161.568 17.0453 161.088 16.96 160.534 16.96C159.936 16.96 159.392 17.0987 158.902 17.376C158.432 17.632 158.048 17.9947 157.75 18.464C157.472 18.9333 157.334 19.4987 157.334 20.16C157.334 20.8 157.472 21.3653 157.75 21.856C158.048 22.3253 158.432 22.6987 158.902 22.976C159.392 23.2533 159.936 23.392 160.534 23.392C161.131 23.392 161.643 23.296 162.07 23.104C162.496 22.912 162.87 22.6347 163.19 22.272L166.742 25.792C165.867 26.6453 164.918 27.2853 163.894 27.712C162.891 28.1387 161.75 28.352 160.47 28.352ZM178.805 28L173.877 19.808L178.773 12.352H184.885L178.805 20.768L178.965 18.72L185.205 28H178.805ZM168.757 28V4.672H174.325V28H168.757Z" fill="black"/>
</svg>
